<svg version="1.1" id="Layer_1" xmlns="http://www.w3.org/2000/svg" xmlns:xlink="http://www.w3.org/1999/xlink" x="0px" y="0px"
	 width="100%" viewBox="0 0 225 225" enable-background="new 0 0 225 225" xml:space="preserve">
<path fill="#FFFFFF" opacity="1.000000" stroke="none" 
	d="
M132.000000,226.000000 
	C89.166672,226.000000 46.833225,225.960831 4.500250,226.083649 
	C1.516990,226.092300 0.913465,225.482300 0.917785,222.499893 
	C1.023049,149.833374 1.023048,77.166656 0.917792,4.500140 
	C0.913473,1.517828 1.517666,0.913462 4.500098,0.917783 
	C77.166611,1.023050 149.833344,1.023045 222.499847,0.917795 
	C225.482132,0.913476 226.086548,1.517622 226.082230,4.500084 
	C225.976959,77.166595 225.976959,149.833328 226.082199,222.499832 
	C226.086517,225.482071 225.484177,226.098831 222.499649,226.084961 
	C192.500290,225.945358 162.500015,226.000000 132.000000,226.000000 
z"/>
<path fill="#2B6F32" opacity="1.000000" stroke="none" 
	d="
M136.629089,32.306087 
	C146.415390,32.941154 154.424469,37.240150 162.068558,42.473789 
	C164.159363,43.905289 163.182938,45.091152 162.152161,46.558342 
	C157.469711,53.223209 152.860199,59.939304 148.218338,66.632729 
	C144.247894,72.357979 144.627853,73.425636 150.258759,77.304527 
	C169.913605,90.843956 183.646973,108.319107 185.520767,133.031174 
	C186.911575,151.373276 180.129074,167.391129 170.875290,182.804611 
	C165.111435,192.405136 157.581680,198.061951 146.220810,198.218903 
	C144.743164,198.239304 143.271774,198.712402 141.375290,198.923157 
	C139.478867,198.178558 137.959702,198.471588 136.244492,198.926559 
	C134.913101,199.445312 133.782288,199.702332 132.298584,199.900909 
	C129.490540,199.130157 126.997360,199.552078 124.278336,199.882355 
	C114.590446,201.619553 105.125656,201.015610 95.279968,200.219330 
	C93.227173,198.932678 91.376205,199.694122 89.324692,199.706696 
	C79.542473,199.481522 70.245644,197.685349 60.939526,195.941193 
	C58.950638,195.568436 57.884895,194.180649 56.725521,192.714767 
	C34.931648,165.159409 34.431953,134.472397 55.419937,104.957893 
	C63.882416,93.057472 74.244629,82.982491 86.002098,74.396652 
	C88.736458,72.399895 89.359665,70.723900 88.433151,67.471313 
	C84.947380,55.234283 81.812500,42.897305 78.331573,29.789644 
	C85.674828,34.073013 92.874268,36.265747 100.732376,37.585068 
	C103.745605,39.287346 106.636826,38.235260 109.698013,38.131210 
	C116.070015,35.927608 122.179710,34.018898 128.679382,32.144974 
	C131.456558,32.876389 133.891113,32.389133 136.629089,32.306087 
z"/>
<path fill="#0A6115" opacity="1.000000" stroke="none" 
	d="
M109.516235,37.788807 
	C107.280594,39.953926 104.372986,39.056671 101.266098,38.139618 
	C103.719276,37.782177 106.395714,37.761738 109.516235,37.788807 
z"/>
<path fill="#086011" opacity="1.000000" stroke="none" 
	d="
M89.451492,199.941971 
	C91.189682,198.251953 93.579208,199.104126 95.895790,199.200989 
	C95.888947,199.346298 95.934967,199.533173 95.861740,199.626266 
	C95.772125,199.740204 95.582603,199.775574 95.167778,199.948837 
	C93.221153,200.042068 91.543030,200.031372 89.451492,199.941971 
z"/>
<path fill="#086011" opacity="1.000000" stroke="none" 
	d="
M124.476807,200.227753 
	C126.268303,198.006790 128.882034,199.104507 131.667679,199.573074 
	C129.601746,199.989700 127.257820,200.136902 124.476807,200.227753 
z"/>
<path fill="#005E06" opacity="1.000000" stroke="none" 
	d="
M136.521698,32.068066 
	C134.615875,33.729347 132.097900,32.973312 129.343170,32.441391 
	C131.408966,32.117485 133.748611,32.055214 136.521698,32.068066 
z"/>
<path fill="#015F0F" opacity="1.000000" stroke="none" 
	d="
M136.453445,199.225220 
	C137.229111,197.372086 138.871323,197.941330 140.716827,198.604401 
	C139.589722,199.001038 138.226364,199.131577 136.453445,199.225220 
z"/>
<path fill="#FDFDFD" opacity="1.000000" stroke="none" 
	d="
M132.462616,195.300766 
	C130.564301,195.267441 129.085098,195.378952 127.286591,195.676086 
	C124.693451,197.170639 122.235283,196.214935 119.450974,196.268494 
	C113.981781,196.051895 108.934769,196.005997 103.424919,196.043640 
	C100.253380,196.851898 97.502327,196.374817 94.399704,196.144470 
	C92.266777,195.581696 90.503685,195.290390 88.352028,195.065796 
	C86.912010,195.671127 85.790596,195.447617 84.339584,195.204041 
	C78.596977,194.051376 73.232750,192.694763 67.801170,192.323547 
	C62.127163,191.935745 59.081924,188.796188 56.347557,184.370010 
	C39.708607,157.436188 40.971577,132.390900 60.497471,106.235916 
	C69.003960,94.841446 79.169533,85.158691 90.735695,76.891869 
	C92.625580,75.541092 94.450851,75.000542 96.705475,75.011047 
	C110.023857,75.073120 123.342690,75.033401 136.661331,75.053040 
	C138.127151,75.055199 139.569077,74.884735 140.975906,75.816750 
	C156.451447,86.069008 169.736847,98.255989 176.982117,115.903908 
	C178.760986,120.236839 179.755096,124.761192 180.814499,129.664673 
	C182.027573,135.048370 181.291702,140.142578 181.105377,145.584381 
	C177.705353,160.729660 171.331726,173.907852 162.605927,186.248581 
	C158.835419,191.581161 153.516129,192.899384 148.449768,193.424896 
	C145.241669,193.757675 141.925583,195.871338 138.230011,194.591797 
	C136.409988,196.169708 134.569305,195.207611 132.462616,195.300766 
z"/>
<path fill="#FAFBFA" opacity="1.000000" stroke="none" 
	d="
M131.407272,72.198837 
	C130.846832,71.083229 130.801315,69.472786 130.507629,69.426178 
	C129.026260,69.191093 129.154678,70.806389 128.265991,71.813377 
	C125.934219,72.946861 123.770981,72.326393 121.288361,72.144531 
	C120.864372,68.557076 120.806549,65.249619 120.640854,61.522652 
	C120.378593,60.668701 120.066689,60.506443 119.429794,60.817177 
	C119.154694,64.348068 119.070801,67.637115 118.973618,71.371986 
	C117.711761,73.059181 116.168198,72.278214 114.377922,72.206505 
	C113.995079,71.982582 113.787086,71.773186 113.657509,71.843803 
	C111.744225,71.198608 112.833939,69.633965 112.511002,68.093834 
	C112.469864,66.909668 112.106361,66.213966 111.718384,65.128616 
	C111.452858,63.267967 111.541977,61.761700 111.508194,59.887558 
	C111.401390,58.783302 111.074158,58.122345 110.704399,57.097511 
	C110.676071,55.467373 110.075386,54.102306 110.921783,52.887486 
	C109.984383,53.783146 110.718933,54.953667 110.501183,56.324432 
	C110.696022,57.386116 110.989357,58.050308 111.344772,59.083279 
	C111.515388,60.925396 111.469528,62.415428 111.500969,64.282501 
	C111.708801,65.400803 112.007683,66.105118 112.364815,67.200111 
	C112.470573,68.889114 112.563530,70.203308 112.016388,71.714539 
	C111.675446,71.919556 111.306488,71.824600 111.147339,71.929276 
	C109.288498,72.881615 107.489075,72.364586 105.380386,72.142113 
	C104.756485,70.645279 104.049614,70.814003 103.105957,71.587051 
	C100.675095,73.160805 98.203659,72.225861 95.413788,72.221832 
	C91.637024,64.752975 90.743500,56.757210 88.248596,49.233418 
	C87.174797,45.995174 87.054619,42.453182 84.095558,38.890396 
	C90.586098,39.754601 95.617714,41.985760 101.058434,42.388535 
	C108.347130,42.928108 115.235741,42.026333 121.984718,39.170120 
	C134.087509,34.048130 145.028900,37.755341 155.591949,43.957123 
	C158.206726,45.492306 156.210693,46.715702 155.411453,47.881027 
	C150.054916,55.691036 144.628693,63.453232 139.095886,71.539490 
	C136.672516,73.183136 134.192963,72.219002 131.407272,72.198837 
z"/>
<path fill="#025E09" opacity="1.000000" stroke="none" 
	d="
M181.147202,145.714478 
	C180.835800,140.947800 180.869446,135.940201 180.946671,130.467758 
	C182.976517,135.100784 182.050598,140.293137 181.147202,145.714478 
z"/>
<path fill="#0A6115" opacity="1.000000" stroke="none" 
	d="
M94.264778,196.194168 
	C96.713287,195.906082 99.396698,195.939163 102.521095,196.049728 
	C100.208099,197.713501 97.354515,197.128021 94.264778,196.194168 
z"/>
<path fill="#0A6115" opacity="1.000000" stroke="none" 
	d="
M119.301880,196.375412 
	C121.383331,195.975800 123.737869,195.853790 126.529846,195.796753 
	C124.699394,197.958588 122.098625,196.945572 119.301880,196.375412 
z"/>
<path fill="#015F0F" opacity="1.000000" stroke="none" 
	d="
M131.257172,72.278481 
	C133.365997,71.945534 135.725220,71.918556 138.525574,71.869804 
	C136.667862,73.993134 134.056473,72.972496 131.257172,72.278481 
z"/>
<path fill="#015F0F" opacity="1.000000" stroke="none" 
	d="
M95.263245,72.310913 
	C97.366028,71.976318 99.726608,71.939415 102.528915,71.884491 
	C100.673576,73.982170 98.063736,72.958366 95.263245,72.310913 
z"/>
<path fill="#015F0F" opacity="1.000000" stroke="none" 
	d="
M121.159988,72.178421 
	C122.987984,71.879486 125.053787,71.894432 127.557861,71.960464 
	C125.909866,73.725121 123.654518,73.118248 121.159988,72.178421 
z"/>
<path fill="#015F0F" opacity="1.000000" stroke="none" 
	d="
M105.231277,72.180481 
	C106.733932,71.884811 108.438431,71.903542 110.565559,71.978111 
	C109.257812,73.649605 107.353653,73.170975 105.231277,72.180481 
z"/>
<path fill="#0A6115" opacity="1.000000" stroke="none" 
	d="
M132.307938,195.413071 
	C133.731812,195.013092 135.420120,194.870239 137.530762,194.763092 
	C136.444321,196.847824 134.461746,195.971313 132.307938,195.413071 
z"/>
<path fill="#005E06" opacity="1.000000" stroke="none" 
	d="
M112.138611,71.934479 
	C111.667442,70.545967 111.659447,69.172371 111.568703,67.391853 
	C111.729538,66.876709 111.973114,66.768494 112.564240,66.857910 
	C113.028160,68.415009 113.144539,69.774467 113.394424,71.524170 
	C113.219215,71.926079 112.910500,71.937737 112.138611,71.934479 
z"/>
<path fill="#015F0F" opacity="1.000000" stroke="none" 
	d="
M114.216980,72.272034 
	C115.375282,71.954414 116.755493,71.926254 118.548004,71.857948 
	C117.718529,73.679001 116.075439,73.100380 114.216980,72.272034 
z"/>
<path fill="#0A6115" opacity="1.000000" stroke="none" 
	d="
M84.177002,195.251160 
	C85.053436,194.977264 86.116074,194.979645 87.571091,195.057281 
	C86.880348,196.330505 85.652412,196.208267 84.177002,195.251160 
z"/>
<path fill="#538757" opacity="1.000000" stroke="none" 
	d="
M119.453735,61.090408 
	C119.329681,59.901333 119.922127,60.211628 120.539268,60.857895 
	C120.532974,61.103142 120.102051,61.164242 120.102051,61.164242 
	C120.102051,61.164242 119.668892,61.121803 119.453735,61.090408 
z"/>
<path fill="#0C570E" opacity="1.000000" stroke="none" 
	d="
M71.335968,156.476242 
	C64.147636,135.104370 70.764076,114.363235 88.123581,102.939789 
	C105.507957,91.499969 128.272415,93.138168 143.532669,106.927193 
	C156.838593,118.950317 161.988754,138.151627 155.694611,154.777420 
	C148.627716,173.444427 134.598404,183.220535 114.827477,184.730286 
	C98.253944,185.995850 80.576889,175.453705 72.941864,160.002014 
	C72.427673,158.961411 71.989563,157.883224 71.335968,156.476242 
z"/>
<path fill="#357739" opacity="1.000000" stroke="none" 
	d="
M101.191513,60.618088 
	C102.316628,63.206882 104.028633,65.626053 102.585114,69.420914 
	C101.820770,66.525635 101.255501,64.384445 100.664825,61.869308 
	C100.675064,61.200691 100.710693,60.906013 101.191513,60.618088 
z"/>
<path fill="#417D46" opacity="1.000000" stroke="none" 
	d="
M133.488525,62.029236 
	C133.154297,64.164413 132.723511,66.002602 130.627625,67.455322 
	C131.185043,65.351990 131.632462,63.663788 132.292648,61.708168 
	C132.766388,61.518280 133.027344,61.595806 133.488525,62.029236 
z"/>
<path fill="#417D46" opacity="1.000000" stroke="none" 
	d="
M137.448944,51.006821 
	C137.175049,53.179638 136.693222,54.953369 134.632812,56.343185 
	C135.179077,54.285347 135.623123,52.612576 136.274567,50.666409 
	C136.747238,50.471592 137.012527,50.550167 137.448944,51.006821 
z"/>
<path fill="#4F8653" opacity="1.000000" stroke="none" 
	d="
M136.757126,50.651733 
	C137.108063,49.333927 136.473328,46.839050 138.472580,47.500900 
	C139.789352,47.936825 137.971588,49.640934 137.817535,51.114525 
	C137.424179,51.226749 137.228241,51.068600 136.757126,50.651733 
z"/>
<path fill="#4F8653" opacity="1.000000" stroke="none" 
	d="
M132.790924,61.689808 
	C132.904510,60.311710 132.612091,58.836739 134.334122,58.121410 
	C135.625946,59.468700 134.007294,60.632076 133.864609,62.104149 
	C133.484619,62.236378 133.280518,62.087620 132.790924,61.689808 
z"/>
<path fill="#417D46" opacity="1.000000" stroke="none" 
	d="
M98.617813,50.784843 
	C99.062737,52.181168 100.711876,53.860718 99.272598,54.378605 
	C97.560844,54.994534 98.174889,52.723301 97.642883,51.401993 
	C97.835106,50.880726 98.055183,50.726658 98.617813,50.784843 
z"/>
<path fill="#086011" opacity="1.000000" stroke="none" 
	d="
M111.607605,58.854340 
	C112.081024,60.763027 112.241150,62.478390 112.482086,64.616753 
	C112.315460,65.138145 112.068024,65.236542 111.480911,65.124832 
	C110.997238,63.227654 110.853249,61.540592 110.677185,59.430977 
	C110.861511,58.892616 111.077911,58.776814 111.607605,58.854340 
z"/>
<path fill="#246A28" opacity="1.000000" stroke="none" 
	d="
M100.869835,61.256081 
	C100.209366,60.093494 99.779305,58.691616 99.253143,56.976479 
	C101.596573,57.348602 100.865196,59.049339 101.559952,60.270844 
	C101.457886,60.755493 101.279068,60.886143 100.869835,61.256081 
z"/>
<path fill="#17641C" opacity="1.000000" stroke="none" 
	d="
M110.516968,57.134907 
	C110.078888,55.506741 109.486481,54.065544 110.311920,52.585094 
	C111.871811,53.470234 110.940742,55.134300 111.639450,56.647213 
	C111.434258,57.147030 111.164177,57.245548 110.516968,57.134907 
z"/>
<path fill="#6C966F" opacity="1.000000" stroke="none" 
	d="
M111.056084,65.185852 
	C111.379967,64.914703 111.618706,64.914688 112.210175,64.977219 
	C112.733337,65.535759 112.903786,66.031754 112.993011,66.791656 
	C112.674507,67.036591 112.437248,67.017632 111.842972,66.991806 
	C111.314285,66.475616 111.142616,65.966301 111.056084,65.185852 
z"/>
<path fill="#6C966F" opacity="1.000000" stroke="none" 
	d="
M110.063599,57.210114 
	C110.401077,56.939396 110.662315,56.953045 111.313950,57.007603 
	C111.831573,57.545998 111.958809,58.043484 112.003479,58.794319 
	C111.708755,59.026405 111.496597,59.005142 110.964783,58.996147 
	C110.425865,58.503769 110.206612,57.999126 110.063599,57.210114 
z"/>
<path fill="#357739" opacity="1.000000" stroke="none" 
	d="
M97.800201,50.520325 
	C96.974594,49.549686 96.194000,48.443111 97.457329,47.363029 
	C97.750465,47.874626 98.043594,48.386227 98.373268,49.251705 
	C98.335114,49.866657 98.260406,50.127728 97.800201,50.520325 
z"/>
<path fill="#357739" opacity="1.000000" stroke="none" 
	d="
M98.963242,50.732582 
	C98.736351,51.006630 98.512360,51.016174 97.951698,51.030251 
	C97.615021,51.034790 97.465683,50.868488 97.440186,50.760170 
	C97.576508,50.473717 97.738327,50.295586 98.154984,49.861519 
	C98.595253,49.893078 98.780701,50.180576 98.963242,50.732582 
z"/>
<path fill="#F8FAF9" opacity="1.000000" stroke="none" 
	d="
M91.250809,162.981201 
	C91.407372,161.976440 91.683189,161.211533 92.044212,160.489212 
	C94.275162,156.025574 96.560394,153.464584 102.209076,156.973572 
	C106.742729,159.789917 112.444061,159.784164 117.709206,157.883209 
	C119.924927,157.083221 121.844727,155.779572 122.163109,153.029892 
	C122.457710,150.485657 120.993690,148.986877 119.232597,147.642410 
	C116.959793,145.907288 114.309364,144.916641 111.652412,143.947983 
	C107.741409,142.522171 103.903656,140.909241 100.465981,138.536057 
	C96.225746,135.608841 92.556183,132.184616 93.102211,126.403320 
	C93.663521,120.460205 97.329857,116.424492 102.594948,114.626785 
	C107.091560,113.091461 109.099281,111.002357 108.108231,106.282013 
	C107.627533,103.992516 108.992088,103.376205 111.002335,103.547852 
	C111.664017,103.604355 112.334839,103.547791 113.001373,103.554474 
	C121.182434,103.636528 119.431190,102.910851 119.827484,110.553619 
	C120.289635,111.302536 120.623642,111.625778 121.048309,112.292236 
	C123.047531,113.146172 124.971825,113.591064 126.843483,114.198212 
	C134.213745,116.589012 134.155258,116.722359 129.743759,122.872131 
	C128.158112,125.082581 126.935478,125.521439 124.726814,123.889305 
	C123.576050,123.038940 122.037216,122.713730 120.323044,122.173782 
	C119.806503,122.254410 119.640610,122.312576 119.245010,122.241211 
	C116.644684,121.570549 114.254074,121.501404 111.416901,121.943008 
	C110.457993,122.497589 109.770325,122.469566 108.868469,122.798508 
	C104.019279,125.436874 103.741249,127.428841 107.537865,130.412033 
	C110.185234,132.492218 113.379829,133.508438 116.390739,134.880722 
	C119.699989,136.388977 123.182098,137.615845 126.273453,139.486588 
	C136.850403,145.887268 136.940933,157.757095 126.529099,164.475403 
	C124.751801,165.622208 122.633453,166.240479 120.411133,167.295868 
	C120.013100,167.916443 119.768806,168.272125 119.188141,168.788879 
	C118.262695,176.897171 118.262062,176.916382 110.169075,176.648743 
	C109.113197,176.613815 107.789841,177.204422 106.977448,175.376343 
	C106.777534,174.820892 106.702171,174.657837 106.748047,174.254150 
	C106.922417,172.939285 106.975533,171.865036 106.949791,170.393723 
	C106.443901,169.479446 105.987686,168.989426 105.253052,168.302704 
	C104.576073,167.969223 104.148338,167.859589 103.390625,167.792755 
	C102.166138,168.002441 101.342018,167.745178 100.267761,167.222839 
	C100.005615,167.030060 99.721085,166.794785 99.541733,166.838501 
	C99.018036,166.845612 98.721245,166.707108 98.252899,166.348236 
	C97.875793,166.141830 97.717804,166.053909 97.288956,165.979492 
	C96.885033,165.851807 96.751976,165.710632 96.341309,165.482239 
	C95.898270,165.272919 95.732834,165.150848 95.259140,165.020081 
	C94.836945,164.862747 94.723022,164.714081 94.338448,164.490021 
	C93.921051,164.287537 93.774307,164.160461 93.337471,164.008270 
	C92.592232,163.535294 91.950073,163.500015 91.250809,162.981201 
z"/>
<path fill="#065506" opacity="1.000000" stroke="none" 
	d="
M100.141823,167.309113 
	C100.858742,167.154099 101.711868,167.278137 102.812820,167.618866 
	C101.972221,169.562668 101.125687,168.569077 100.141823,167.309113 
z"/>
<path fill="#065506" opacity="1.000000" stroke="none" 
	d="
M105.039810,168.382568 
	C105.996086,167.941162 107.011925,167.764175 106.941475,169.639435 
	C106.007477,169.923004 105.295280,169.642136 105.039810,168.382568 
z"/>
<path fill="#014D01" opacity="1.000000" stroke="none" 
	d="
M108.895935,122.888145 
	C109.137360,122.579582 109.719566,122.282219 110.644020,122.031326 
	C110.403084,122.351639 109.819908,122.625488 108.895935,122.888145 
z"/>
<path fill="#065506" opacity="1.000000" stroke="none" 
	d="
M91.211975,163.015762 
	C91.626099,162.981308 92.160027,163.240952 92.870667,163.741882 
	C92.475517,163.758713 91.903656,163.534286 91.211975,163.015762 
z"/>
<path fill="#065506" opacity="1.000000" stroke="none" 
	d="
M106.719482,174.102173 
	C106.912689,174.176025 106.956085,174.338531 106.926186,174.742493 
	C106.702515,174.820190 106.534386,174.668015 106.414459,174.484390 
	C106.385132,174.439484 106.513702,174.291458 106.719482,174.102173 
z"/>
<path fill="#004C00" opacity="1.000000" stroke="none" 
	d="
M121.029442,112.295685 
	C120.738152,112.343773 120.328888,112.060822 119.933380,111.382965 
	C120.268578,111.313591 120.590019,111.639122 121.029442,112.295685 
z"/>
<path fill="#004C00" opacity="1.000000" stroke="none" 
	d="
M119.225571,168.833176 
	C119.105949,168.575928 119.266479,168.139374 119.788300,167.595825 
	C119.934967,167.877167 119.720345,168.265518 119.225571,168.833176 
z"/>
<path fill="#014D01" opacity="1.000000" stroke="none" 
	d="
M119.095230,122.263855 
	C119.015312,122.111687 119.505859,122.018082 119.739136,122.107170 
	C119.706657,122.269516 119.440910,122.342766 119.095230,122.263855 
z"/>
<path fill="#065506" opacity="1.000000" stroke="none" 
	d="
M98.213821,166.410721 
	C98.370628,166.304825 98.707474,166.379929 99.203354,166.668640 
	C99.039536,166.785400 98.716698,166.688568 98.213821,166.410721 
z"/>
<path fill="#065506" opacity="1.000000" stroke="none" 
	d="
M96.202721,165.524261 
	C96.341606,165.391403 96.579109,165.487579 96.897156,165.838257 
	C96.773819,165.917313 96.548370,165.804153 96.202721,165.524261 
z"/>
<path fill="#065506" opacity="1.000000" stroke="none" 
	d="
M94.198334,164.537140 
	C94.331856,164.417542 94.553276,164.516174 94.841461,164.860947 
	C94.727585,164.922348 94.520256,164.805099 94.198334,164.537140 
z"/>
</svg>