<?xml version="1.0" encoding="UTF-8"?>
<svg id="Layer_1" data-name="Layer 1" xmlns="http://www.w3.org/2000/svg" viewBox="0 0 145.68 171.21">
  <defs>
    <style>
      .cls-1 {
        fill: #6c966f;
      }

      .cls-2 {
        fill: #fafbfa;
      }

      .cls-3 {
        fill: #2b6f32;
      }

      .cls-4 {
        fill: #065506;
      }

      .cls-5 {
        fill: #538757;
      }

      .cls-6 {
        fill: #17641c;
      }

      .cls-7 {
        fill: #0c570e;
      }

      .cls-8 {
        fill: #086011;
      }

      .cls-9 {
        fill: #fdfdfd;
      }

      .cls-10 {
        fill: #015f0f;
      }

      .cls-11 {
        fill: #014d01;
      }

      .cls-12 {
        fill: #4f8653;
      }

      .cls-13 {
        fill: #417d46;
      }

      .cls-14 {
        fill: #357739;
      }

      .cls-15 {
        fill: #025e09;
      }

      .cls-16 {
        fill: #f8faf9;
      }

      .cls-17 {
        fill: #004c00;
      }

      .cls-18 {
        fill: #246a28;
      }

      .cls-19 {
        fill: #0a6115;
      }

      .cls-20 {
        fill: #005e06;
      }
    </style>
  </defs>
  <path class="cls-3" d="m96.61,2.52c9.79.64,17.8,4.93,25.44,10.17,2.09,1.43,1.11,2.62.08,4.08-4.68,6.66-9.29,13.38-13.93,20.07-3.97,5.73-3.59,6.79,2.04,10.67,19.65,13.54,33.39,31.01,35.26,55.73,1.39,18.34-5.39,34.36-14.65,49.77-5.76,9.6-13.29,15.26-24.65,15.41-1.48.02-2.95.49-4.85.7-1.9-.74-3.42-.45-5.13,0-1.33.52-2.46.78-3.95.97-2.81-.77-5.3-.35-8.02-.02-9.69,1.74-19.15,1.13-29,.34-2.05-1.29-3.9-.53-5.96-.51-9.78-.23-19.08-2.02-28.39-3.77-1.99-.37-3.05-1.76-4.21-3.23-21.79-27.56-22.29-58.24-1.31-87.76,8.46-11.9,18.82-21.98,30.58-30.56,2.73-2,3.36-3.67,2.43-6.93-3.49-12.24-6.62-24.57-10.1-37.68,7.34,4.28,14.54,6.48,22.4,7.8,3.01,1.7,5.9.65,8.97.55,6.37-2.2,12.48-4.11,18.98-5.99,2.78.73,5.21.24,7.95.16Z"/>
  <path class="cls-19" d="m69.49,8c-2.24,2.17-5.14,1.27-8.25.35,2.45-.36,5.13-.38,8.25-.35Z"/>
  <path class="cls-8" d="m49.43,170.15c1.74-1.69,4.13-.84,6.44-.74,0,.15.04.33-.03.43-.09.11-.28.15-.69.32-1.95.09-3.62.08-5.72,0Z"/>
  <path class="cls-8" d="m84.45,170.44c1.79-2.22,4.41-1.12,7.19-.65-2.07.42-4.41.56-7.19.65Z"/>
  <path class="cls-20" d="m96.5,2.28c-1.91,1.66-4.42.91-7.18.37,2.07-.32,4.41-.39,7.18-.37Z"/>
  <path class="cls-10" d="m96.43,169.44c.78-1.85,2.42-1.28,4.26-.62-1.13.4-2.49.53-4.26.62Z"/>
  <path class="cls-9" d="m92.44,165.51c-1.9-.03-3.38.08-5.18.38-2.59,1.49-5.05.54-7.84.59-5.47-.22-10.52-.26-16.03-.22-3.17.81-5.92.33-9.03.1-2.13-.56-3.9-.85-6.05-1.08-1.44.61-2.56.38-4.01.14-5.74-1.15-11.11-2.51-16.54-2.88-5.67-.39-8.72-3.53-11.45-7.95C-.31,127.65.95,102.6,20.48,76.45c8.51-11.39,18.67-21.08,30.24-29.34,1.89-1.35,3.72-1.89,5.97-1.88,13.32.06,26.64.02,39.96.04,1.47,0,2.91-.17,4.31.76,15.48,10.25,28.76,22.44,36.01,40.09,1.78,4.33,2.77,8.86,3.83,13.76,1.21,5.38.48,10.48.29,15.92-3.4,15.15-9.77,28.32-18.5,40.66-3.77,5.33-9.09,6.65-14.16,7.18-3.21.33-6.52,2.45-10.22,1.17-1.82,1.58-3.66.62-5.77.71Z"/>
  <path class="cls-2" d="m91.38,42.41c-.56-1.12-.61-2.73-.9-2.77-1.48-.24-1.35,1.38-2.24,2.39-2.33,1.13-4.5.51-6.98.33-.42-3.59-.48-6.89-.65-10.62-.26-.85-.57-1.02-1.21-.71-.28,3.53-.36,6.82-.46,10.55-1.26,1.69-2.81.91-4.6.83-.38-.22-.59-.43-.72-.36-1.91-.65-.82-2.21-1.15-3.75-.04-1.18-.4-1.88-.79-2.97-.27-1.86-.18-3.37-.21-5.24-.11-1.1-.43-1.77-.8-2.79-.03-1.63-.63-3,.22-4.21-.94.9-.2,2.07-.42,3.44.19,1.06.49,1.73.84,2.76.17,1.84.12,3.33.16,5.2.21,1.12.51,1.82.86,2.92.11,1.69.2,3-.35,4.51-.34.21-.71.11-.87.21-1.86.95-3.66.44-5.77.21-.62-1.5-1.33-1.33-2.27-.56-2.43,1.57-4.9.64-7.69.63-3.78-7.47-4.67-15.46-7.17-22.99-1.07-3.24-1.19-6.78-4.15-10.34,6.49.86,11.52,3.1,16.96,3.5,7.29.54,14.18-.36,20.93-3.22,12.1-5.12,23.04-1.41,33.61,4.79,2.61,1.54.62,2.76-.18,3.92-5.36,7.81-10.78,15.57-16.32,23.66-2.42,1.64-4.9.68-7.69.66Z"/>
  <path class="cls-15" d="m141.12,115.92c-.31-4.77-.28-9.77-.2-15.25,2.03,4.63,1.1,9.83.2,15.25Z"/>
  <path class="cls-19" d="m54.24,166.4c2.45-.29,5.13-.26,8.26-.14-2.31,1.66-5.17,1.08-8.26.14Z"/>
  <path class="cls-19" d="m79.28,166.59c2.08-.4,4.44-.52,7.23-.58-1.83,2.16-4.43,1.15-7.23.58Z"/>
  <path class="cls-10" d="m91.23,42.49c2.11-.33,4.47-.36,7.27-.41-1.86,2.12-4.47,1.1-7.27.41Z"/>
  <path class="cls-10" d="m55.24,42.52c2.1-.33,4.46-.37,7.27-.43-1.86,2.1-4.47,1.07-7.27.43Z"/>
  <path class="cls-10" d="m81.14,42.39c1.83-.3,3.89-.28,6.4-.22-1.65,1.76-3.9,1.16-6.4.22Z"/>
  <path class="cls-10" d="m65.21,42.39c1.5-.3,3.21-.28,5.33-.2-1.31,1.67-3.21,1.19-5.33.2Z"/>
  <path class="cls-19" d="m92.29,165.62c1.42-.4,3.11-.54,5.22-.65-1.09,2.08-3.07,1.21-5.22.65Z"/>
  <path class="cls-20" d="m72.12,42.14c-.47-1.39-.48-2.76-.57-4.54.16-.52.4-.62,1-.53.46,1.56.58,2.92.83,4.67-.18.4-.48.41-1.26.41Z"/>
  <path class="cls-10" d="m74.19,42.48c1.16-.32,2.54-.35,4.33-.41-.83,1.82-2.47,1.24-4.33.41Z"/>
  <path class="cls-19" d="m44.15,165.46c.88-.27,1.94-.27,3.39-.19-.69,1.27-1.92,1.15-3.39.19Z"/>
  <path class="cls-5" d="m79.43,31.3c-.12-1.19.47-.88,1.09-.23,0,.25-.44.31-.44.31,0,0-.43-.04-.65-.07Z"/>
  <path class="cls-7" d="m31.31,126.69c-7.19-21.37-.57-42.11,16.79-53.54,17.38-11.44,40.15-9.8,55.41,3.99,13.31,12.02,18.46,31.22,12.16,47.85-7.07,18.67-21.1,28.44-40.87,29.95-16.57,1.27-34.25-9.28-41.89-24.73-.51-1.04-.95-2.12-1.61-3.53Z"/>
  <path class="cls-14" d="m61.17,30.83c1.13,2.59,2.84,5.01,1.39,8.8-.76-2.9-1.33-5.04-1.92-7.55.01-.67.05-.96.53-1.25Z"/>
  <path class="cls-13" d="m93.47,32.24c-.33,2.14-.77,3.97-2.86,5.43.56-2.1,1-3.79,1.67-5.75.47-.19.73-.11,1.2.32Z"/>
  <path class="cls-13" d="m97.43,21.22c-.27,2.17-.76,3.95-2.82,5.34.55-2.06.99-3.73,1.64-5.68.47-.19.74-.12,1.17.34Z"/>
  <path class="cls-12" d="m96.73,20.86c.35-1.32-.28-3.81,1.72-3.15,1.32.44-.5,2.14-.66,3.61-.39.11-.59-.05-1.06-.46Z"/>
  <path class="cls-12" d="m92.77,31.9c.11-1.38-.18-2.85,1.54-3.57,1.29,1.35-.33,2.51-.47,3.98-.38.13-.58-.02-1.07-.41Z"/>
  <path class="cls-13" d="m58.6,21c.44,1.4,2.09,3.08.65,3.59-1.71.62-1.1-1.66-1.63-2.98.19-.52.41-.68.97-.62Z"/>
  <path class="cls-8" d="m71.59,29.06c.47,1.91.63,3.62.87,5.76-.17.52-.41.62-1,.51-.48-1.9-.63-3.58-.8-5.69.18-.54.4-.65.93-.58Z"/>
  <path class="cls-18" d="m60.85,31.47c-.66-1.16-1.09-2.56-1.62-4.28,2.34.37,1.61,2.07,2.31,3.29-.1.48-.28.62-.69.99Z"/>
  <path class="cls-6" d="m70.49,27.35c-.44-1.63-1.03-3.07-.21-4.55,1.56.89.63,2.55,1.33,4.06-.21.5-.48.6-1.12.49Z"/>
  <path class="cls-1" d="m71.03,35.4c.32-.27.56-.27,1.15-.21.52.56.69,1.05.78,1.81-.32.24-.56.23-1.15.2-.53-.52-.7-1.03-.79-1.81Z"/>
  <path class="cls-1" d="m70.04,27.42c.34-.27.6-.26,1.25-.2.52.54.64,1.04.69,1.79-.29.23-.51.21-1.04.2-.54-.49-.76-1-.9-1.79Z"/>
  <path class="cls-14" d="m57.78,20.73c-.83-.97-1.61-2.08-.34-3.16.29.51.59,1.02.92,1.89-.04.61-.11.88-.57,1.27Z"/>
  <path class="cls-14" d="m58.94,20.94c-.23.27-.45.28-1.01.3-.34,0-.49-.16-.51-.27.14-.29.3-.46.71-.9.44.03.63.32.81.87Z"/>
  <path class="cls-16" d="m51.23,133.19c.16-1,.43-1.77.79-2.49,2.23-4.46,4.52-7.02,10.16-3.52,4.53,2.82,10.23,2.81,15.5.91,2.22-.8,4.14-2.1,4.45-4.85.29-2.54-1.17-4.04-2.93-5.39-2.27-1.74-4.92-2.73-7.58-3.69-3.91-1.43-7.75-3.04-11.19-5.41-4.24-2.93-7.91-6.35-7.36-12.13.56-5.94,4.23-9.98,9.49-11.78,4.5-1.54,6.5-3.62,5.51-8.34-.48-2.29.88-2.91,2.89-2.73.66.06,1.33,0,2,0,8.18.08,6.43-.64,6.83,7,.46.75.8,1.07,1.22,1.74,2,.85,3.92,1.3,5.8,1.91,7.37,2.39,7.31,2.52,2.9,8.67-1.59,2.21-2.81,2.65-5.02,1.02-1.15-.85-2.69-1.18-4.4-1.72-.52.08-.68.14-1.08.07-2.6-.67-4.99-.74-7.83-.3-.96.55-1.65.53-2.55.86-4.85,2.64-5.13,4.63-1.33,7.61,2.65,2.08,5.84,3.1,8.85,4.47,3.31,1.51,6.79,2.74,9.88,4.61,10.58,6.4,10.67,18.27.26,24.99-1.78,1.15-3.9,1.77-6.12,2.82-.4.62-.64.98-1.22,1.49q-.93,8.11-9.02,7.86c-1.06-.03-2.38.56-3.19-1.27-.2-.56-.28-.72-.23-1.12.17-1.31.23-2.39.2-3.86-.51-.91-.96-1.4-1.7-2.09-.68-.33-1.1-.44-1.86-.51-1.22.21-2.05-.05-3.12-.57-.26-.19-.55-.43-.73-.38-.52,0-.82-.13-1.29-.49-.38-.21-.54-.29-.96-.37-.4-.13-.54-.27-.95-.5-.44-.21-.61-.33-1.08-.46-.42-.16-.54-.31-.92-.53-.42-.2-.56-.33-1-.48-.75-.47-1.39-.51-2.09-1.03Z"/>
  <path class="cls-4" d="m60.12,137.52c.72-.16,1.57-.03,2.67.31-.84,1.94-1.69.95-2.67-.31Z"/>
  <path class="cls-4" d="m65.02,138.59c.96-.44,1.97-.62,1.9,1.26-.93.28-1.65,0-1.9-1.26Z"/>
  <path class="cls-11" d="m68.87,93.1c.24-.31.82-.61,1.75-.86-.24.32-.82.59-1.75.86Z"/>
  <path class="cls-4" d="m51.19,133.23c.41-.03.95.23,1.66.73-.4.02-.97-.21-1.66-.73Z"/>
  <path class="cls-4" d="m66.7,144.31c.19.07.24.24.21.64-.22.08-.39-.07-.51-.26-.03-.04.1-.19.31-.38Z"/>
  <path class="cls-17" d="m81.01,82.51c-.29.05-.7-.23-1.1-.91.34-.07.66.26,1.1.91Z"/>
  <path class="cls-17" d="m79.2,139.04c-.12-.26.04-.69.56-1.24.15.28-.07.67-.56,1.24Z"/>
  <path class="cls-11" d="m79.07,92.47c-.08-.15.41-.25.64-.16-.03.16-.3.24-.64.16Z"/>
  <path class="cls-4" d="m58.19,136.62c.16-.11.49-.03.99.26-.16.12-.49.02-.99-.26Z"/>
  <path class="cls-4" d="m56.18,135.73c.14-.13.38-.04.69.31-.12.08-.35-.03-.69-.31Z"/>
  <path class="cls-4" d="m54.18,134.75c.13-.12.35-.02.64.32-.11.06-.32-.06-.64-.32Z"/>
</svg>